<svg xmlns="http://www.w3.org/2000/svg" viewBox="0 0 800 600">
<defs>
<linearGradient id="bg" x1="0" y1="0" x2="0" y2="1"><stop offset="0" stop-color="#FDF3E4"/><stop offset="1" stop-color="#F3DFC0"/></linearGradient>
</defs>
<rect width="800" height="600" fill="url(#bg)"/>
<circle cx="400" cy="300" r="235" fill="#ffffff" opacity="0.35"/>

  <ellipse cx="400" cy="410" rx="236" ry="62" fill="#ffffff"/><ellipse cx="400" cy="404" rx="202" ry="42" fill="#F1F3F6"/>
  <ellipse cx="400" cy="386" rx="168" ry="46" fill="#F6E3C2"/>
  <ellipse cx="352" cy="370" rx="66" ry="28" fill="#F2C94C"/>
  <ellipse cx="466" cy="398" rx="72" ry="30" fill="#A9C48A"/>
  <circle cx="322" cy="404" r="14" fill="#E5533C"/>
  <circle cx="482" cy="362" r="12" fill="#E5533C"/>
  <path d="M348 262 q-16 -26 0 -52 q16 -26 0 -52" fill="none" stroke="#ffffff" stroke-width="10" stroke-linecap="round" opacity="0.75"/><path d="M400 262 q-16 -26 0 -52 q16 -26 0 -52" fill="none" stroke="#ffffff" stroke-width="10" stroke-linecap="round" opacity="0.63"/><path d="M452 262 q-16 -26 0 -52 q16 -26 0 -52" fill="none" stroke="#ffffff" stroke-width="10" stroke-linecap="round" opacity="0.51"/>
  <path d="M594 172 l5.5 15.400000000000002 15.400000000000002 6.6000000000000005 -15.400000000000002 6.6000000000000005 -5.5 15.400000000000002 -5.5 -15.400000000000002 -15.400000000000002 -6.6000000000000005 15.400000000000002 -6.6000000000000005 Z" fill="#ffffff" opacity="0.9"/>

</svg>
