<svg xmlns="http://www.w3.org/2000/svg" viewBox="0 0 800 600">
<defs>
<linearGradient id="bg" x1="0" y1="0" x2="0" y2="1"><stop offset="0" stop-color="#FFF1D8"/><stop offset="1" stop-color="#F2D8A0"/></linearGradient>
</defs>
<rect width="800" height="600" fill="url(#bg)"/>
<circle cx="400" cy="300" r="235" fill="#ffffff" opacity="0.35"/>

  <ellipse cx="400" cy="418" rx="246" ry="62" fill="#ffffff"/><ellipse cx="400" cy="412" rx="212" ry="42" fill="#F1F3F6"/>
  <g transform="translate(400 358) rotate(-8)">
    <path d="M-158 26 q-30 -60 30 -86 q66 -30 150 -22 q86 8 122 52 q26 34 -8 62 q-58 44 -150 40 q-108 -4 -144 -46 Z" fill="#E8B04B" stroke="#C98F3A" stroke-width="5"/>
    <path d="M-118 4 q-16 -34 20 -50 q50 -22 112 -16 q66 6 92 34 q16 20 -6 36 q-42 30 -108 27 q-76 -3 -110 -31 Z" fill="#F4CD80"/>
    <circle cx="-52" cy="-20" r="9" fill="#C98F3A" opacity="0.7"/><circle cx="26" cy="-42" r="8" fill="#C98F3A" opacity="0.7"/><circle cx="94" cy="-10" r="9" fill="#C98F3A" opacity="0.7"/><circle cx="30" cy="24" r="8" fill="#C98F3A" opacity="0.7"/>
    <rect x="-36" y="-18" width="72" height="32" rx="9" fill="#FFE08A" transform="rotate(6)"/>
  </g>
  <path d="M602 178 l5 14 14 6 -14 6 -5 14 -5 -14 -14 -6 14 -6 Z" fill="#ffffff" opacity="0.9"/>

</svg>
