<svg xmlns="http://www.w3.org/2000/svg" viewBox="0 0 800 600">
<defs>
<linearGradient id="bg" x1="0" y1="0" x2="0" y2="1"><stop offset="0" stop-color="#FBE7DA"/><stop offset="1" stop-color="#F2BE97"/></linearGradient>
</defs>
<rect width="800" height="600" fill="url(#bg)"/>
<circle cx="400" cy="300" r="235" fill="#ffffff" opacity="0.35"/>

  <ellipse cx="400" cy="402" rx="238" ry="66" fill="#ffffff"/><ellipse cx="400" cy="396" rx="204" ry="46" fill="#F1F3F6"/>
  
  <g transform="translate(268 318) rotate(7)">
    <rect x="-8" y="-70" width="16" height="184" rx="8" fill="#8A5A33"/>
    <rect x="-34" y="-112" width="68" height="64" rx="18" fill="#F2A25C" stroke="#DD7E2B" stroke-width="5"/>
    <rect x="-34" y="-38" width="68" height="64" rx="18" fill="#E56B33" stroke="#C4551F" stroke-width="5"/>
    <circle cx="-11" cy="-92" r="5" fill="#FFDCA8"/><circle cx="13" cy="-74" r="5" fill="#FFDCA8"/>
    <circle cx="13" cy="-16" r="5" fill="#F8A870"/><circle cx="-13" cy="2" r="5" fill="#F8A870"/>
    <rect x="-28" y="34" width="56" height="34" rx="15" fill="#7FB069"/>
  </g>
  <g transform="translate(372 318) rotate(-7)">
    <rect x="-8" y="-70" width="16" height="184" rx="8" fill="#8A5A33"/>
    <rect x="-34" y="-112" width="68" height="64" rx="18" fill="#F2A25C" stroke="#DD7E2B" stroke-width="5"/>
    <rect x="-34" y="-38" width="68" height="64" rx="18" fill="#E56B33" stroke="#C4551F" stroke-width="5"/>
    <circle cx="-11" cy="-92" r="5" fill="#FFDCA8"/><circle cx="13" cy="-74" r="5" fill="#FFDCA8"/>
    <circle cx="13" cy="-16" r="5" fill="#F8A870"/><circle cx="-13" cy="2" r="5" fill="#F8A870"/>
    <rect x="-28" y="34" width="56" height="34" rx="15" fill="#7FB069"/>
  </g>
  <g transform="translate(476 318) rotate(7)">
    <rect x="-8" y="-70" width="16" height="184" rx="8" fill="#8A5A33"/>
    <rect x="-34" y="-112" width="68" height="64" rx="18" fill="#F2A25C" stroke="#DD7E2B" stroke-width="5"/>
    <rect x="-34" y="-38" width="68" height="64" rx="18" fill="#E56B33" stroke="#C4551F" stroke-width="5"/>
    <circle cx="-11" cy="-92" r="5" fill="#FFDCA8"/><circle cx="13" cy="-74" r="5" fill="#FFDCA8"/>
    <circle cx="13" cy="-16" r="5" fill="#F8A870"/><circle cx="-13" cy="2" r="5" fill="#F8A870"/>
    <rect x="-28" y="34" width="56" height="34" rx="15" fill="#7FB069"/>
  </g>
  <ellipse cx="592" cy="432" rx="44" ry="19.36" fill="#ffffff"/><ellipse cx="592" cy="427" rx="33" ry="10.36" fill="#57B380"/>
  <circle cx="222" cy="430" r="8" fill="#D9534F"/><circle cx="200" cy="442" r="6" fill="#5C7345"/>
  <path d="M584 158 l6 16.8 16.8 7.199999999999999 -16.8 7.199999999999999 -6 16.8 -6 -16.8 -16.8 -7.199999999999999 16.8 -7.199999999999999 Z" fill="#ffffff" opacity="0.9"/>

</svg>
